<svg width="35" height="35" viewBox="0 0 35 35" fill="none" xmlns="http://www.w3.org/2000/svg">
<path d="M34.2532 21.9061C31.9827 31.0133 22.7586 36.5558 13.6503 34.2847C4.54576 32.0142 -0.99672 22.7895 1.27475 13.683C3.54423 4.57479 12.7684 -0.968104 21.8739 1.30237C30.9815 3.57284 36.5237 12.7986 34.2529 21.9062L34.2531 21.9061H34.2532Z" fill="#F3BA2F"/>
<path fill-rule="evenodd" clip-rule="evenodd" d="M17.7658 11.5829L13.3637 15.985L13.3638 15.9848L10.8026 13.4234L17.7658 6.46024L24.7312 13.4255L22.1699 15.9869L17.7658 11.5829ZM8.9938 15.232L6.43237 17.7938L8.99362 20.3546L11.555 17.7932L8.9938 15.232ZM13.3637 19.6025L17.7657 24.0042L22.1698 19.6004L24.7325 22.1604L24.7312 22.1617L17.7657 29.1269L10.8025 22.1637L10.7989 22.1601L13.3637 19.6025ZM26.5377 15.2331L23.9762 17.7945L26.5376 20.3558L29.0989 17.7943L26.5377 15.2331Z" fill="white"/>
<path d="M20.3634 17.7924H20.3644L17.7656 15.1933L15.8446 17.1137L15.6239 17.3345L15.1688 17.7898L15.1652 17.7933L15.1688 17.797L17.7656 20.3942L20.3646 17.7951L20.3659 17.7936L20.3635 17.7924" fill="white"/>
</svg>
