<svg width="35" height="35" viewBox="0 0 35 35" fill="none" xmlns="http://www.w3.org/2000/svg">
<path d="M34.2531 21.8479C31.9827 30.9551 22.7585 36.4976 13.6502 34.2265C4.5457 31.956 -0.996781 22.7313 1.27469 13.6248C3.54416 4.5166 12.7683 -1.0263 21.8738 1.24417C30.9815 3.51464 36.5236 12.7404 34.2529 21.848L34.253 21.8479H34.2531Z" fill="#F7931A"/>
<path fill-rule="evenodd" clip-rule="evenodd" d="M25.2599 15.3134C25.5982 13.0511 23.8759 11.835 21.5206 11.0237L22.2847 7.9592L20.4192 7.49437L19.6754 10.4782C19.185 10.3559 18.6814 10.2406 18.1808 10.1264L18.93 7.12285L17.0657 6.65802L16.3012 9.72155C15.8954 9.62915 15.4968 9.53783 15.1101 9.44161L15.1122 9.43197L12.5397 8.78956L12.0435 10.782C12.0435 10.782 13.4275 11.0993 13.3983 11.1188C14.1537 11.3073 14.2903 11.8074 14.2677 12.2037L13.3973 15.695C13.4493 15.7082 13.5168 15.7273 13.5913 15.7572L13.5371 15.7437C13.491 15.7322 13.4432 15.7202 13.3941 15.7084L12.1742 20.5991C12.0819 20.8286 11.8475 21.173 11.3194 21.0423C11.3381 21.0693 9.96352 20.7039 9.96352 20.7039L9.03735 22.8393L11.465 23.4444C11.7307 23.5111 11.9932 23.5795 12.2531 23.6473L12.2536 23.6474C12.4353 23.6948 12.6157 23.7418 12.795 23.7876L12.023 26.8873L13.8863 27.3521L14.6508 24.2853C15.1598 24.4235 15.6538 24.551 16.1374 24.6712L15.3755 27.7235L17.2411 28.1883L18.013 25.0944C21.194 25.6965 23.5859 25.4537 24.5926 22.5765C25.4039 20.26 24.5523 18.9238 22.8787 18.0525C24.0976 17.7714 25.0158 16.9697 25.2605 15.3136L25.26 15.3132L25.2599 15.3134ZM20.9977 21.29C20.4688 23.4154 17.1421 22.5367 15.62 22.1347L15.6199 22.1347C15.483 22.0985 15.3607 22.0662 15.2564 22.0403L16.2808 17.9338C16.408 17.9655 16.5634 18.0004 16.7394 18.0399L16.7395 18.0399C18.3139 18.3933 21.5396 19.1172 20.9978 21.29H20.9977ZM17.0553 16.134C18.3243 16.4727 21.0925 17.2115 21.5746 15.2798H21.5748C22.0671 13.3042 19.3768 12.7086 18.0629 12.4177C17.9151 12.385 17.7847 12.3561 17.6782 12.3296L16.7494 16.0539C16.8371 16.0758 16.94 16.1032 17.0553 16.134Z" fill="white"/>
</svg>
