<svg width="35" height="35" viewBox="0 0 35 35" fill="none" xmlns="http://www.w3.org/2000/svg">
<circle cx="17.9034" cy="17.5939" r="15.1583" fill="white"/>
<path fill-rule="evenodd" clip-rule="evenodd" d="M0.761719 17.7355C0.761719 8.34669 8.37285 0.735535 17.7616 0.735535H17.8604C22.356 0.748616 26.6622 2.54704 29.8318 5.73516C33.0014 8.92328 34.7747 13.2399 34.7616 17.7355C34.7616 27.1244 27.1504 34.7355 17.7616 34.7355C8.37285 34.7355 0.761719 27.1244 0.761719 17.7355ZM16.2798 24.2803L18.0498 18.3118L20.8076 17.5297L21.3839 15.5539L18.6672 16.3772L21.5486 6.58058V6.42416C21.5443 6.2975 21.4898 6.17774 21.3971 6.09127C21.3045 6.0048 21.1813 5.9587 21.0546 5.96315H17.3912C17.1058 5.95435 16.8511 6.1411 16.7738 6.41593L13.3573 18.0237L10.6406 18.8469L10.0232 20.7404L12.7399 19.9171L10.3113 28.1907H24.8004C25.0867 28.2026 25.343 28.0146 25.4178 27.738L26.241 24.8978V24.7414C26.2367 24.6147 26.1823 24.4949 26.0896 24.4085C25.997 24.322 25.8737 24.2759 25.7471 24.2803H16.2798Z" fill="#345D9D"/>
</svg>
