<svg width="35" height="35" viewBox="0 0 35 35" fill="none" xmlns="http://www.w3.org/2000/svg">
<path d="M34.2493 21.8474C31.9788 30.9546 22.7547 36.4971 13.6463 34.2261C4.54186 31.9556 -1.00063 22.7309 1.27084 13.6244C3.54032 4.51614 12.7645 -1.02676 21.87 1.24371C30.9776 3.51419 36.5198 12.7399 34.249 21.8476L34.2492 21.8474H34.2493Z" fill="#50AF95"/>
<path fill-rule="evenodd" clip-rule="evenodd" d="M19.9129 19.6623C19.7927 19.6713 19.1717 19.7084 17.7863 19.7084C16.6844 19.7084 15.9021 19.6753 15.6276 19.6623C11.3693 19.475 8.19089 18.7337 8.19089 17.8462C8.19089 16.9587 11.3693 16.2184 15.6276 16.0281V18.924C15.9061 18.9441 16.7034 18.9912 17.8053 18.9912C19.1276 18.9912 19.7897 18.9361 19.9089 18.925V16.0301C24.1582 16.2194 27.3296 16.9607 27.3296 17.8462C27.3296 18.7317 24.1592 19.473 19.9089 19.6613L19.9129 19.6623ZM19.9129 15.7306V13.1392H25.8431V9.18741H9.69746V13.1392H15.6266V15.7296C10.8074 15.951 7.18317 16.9056 7.18317 18.0496C7.18317 19.1935 10.8074 20.1471 15.6266 20.3695V28.6737H19.9119V20.3665C24.7201 20.1451 28.3383 19.1915 28.3383 18.0485C28.3383 16.9056 24.7231 15.952 19.9119 15.7296L19.9129 15.7306Z" fill="white"/>
</svg>
